<svg width="209" height="247" viewBox="0 0 209 247" fill="none" xmlns="http://www.w3.org/2000/svg">
<g clip-path="url(#clip0_3_331)">
<path d="M86.7746 202.1C90.9332 197.864 96.9597 195.435 103.309 195.435L103.554 195.436C107.736 195.437 111.843 194.342 115.456 192.261L115.831 192.045L115.529 191.736C113.89 190.061 112.521 188.147 111.47 186.062C112.216 186.749 113.106 187.265 114.077 187.575C115.047 187.884 116.075 187.98 117.086 187.854C118.155 187.728 119.18 187.365 120.086 186.792C120.992 186.218 121.755 185.45 122.317 184.544C124.536 180.988 127.182 175.942 127.182 172.098C127.178 168.849 126.489 165.637 125.159 162.665C123.829 159.693 121.886 157.028 119.455 154.839C117.916 153.468 116.687 151.793 115.848 149.922C115.008 148.05 114.578 146.025 114.584 143.979L114.585 143.687C114.586 140.993 114.252 138.308 113.592 135.694C112.933 133.079 113.525 135.43 113.525 135.43C113.525 135.43 115.024 135.38 113.25 135.439C111.477 135.499 109.702 135.352 107.963 135.002C109.594 134.804 111.19 134.385 112.705 133.756C112.705 133.756 112.911 133.724 113.001 133.638C113.223 133.424 112.705 132.903 112.705 132.903C105.783 128.67 90.3537 131.298 81.2847 110.804C73.9309 94.1862 47.9843 125.555 47.9843 143.687C47.9843 145.538 49.8382 147.983 48.4504 149.205C33.4481 162.425 43.7994 170.913 47.0631 179.455C47.8374 181.482 46.1584 183.706 46.1584 185.899C46.1584 186.271 46.168 186.655 46.187 187.04L46.2159 187.633L46.7161 187.304C47.7057 186.664 48.6229 185.921 49.4522 185.087C48.5919 187.043 48.1864 189.164 48.2657 191.295C48.3449 193.425 48.9069 195.511 49.9102 197.399C51.4824 200.33 53.0034 202.428 54.431 203.635C59.004 207.5 64.8992 209.494 70.9112 209.209C76.9232 208.923 82.5978 206.381 86.7746 202.1Z" fill="#E6E6E6"/>
<path d="M60.3624 246.193C60.2602 246.193 60.1614 246.156 60.0843 246.09C60.0071 246.024 59.9567 245.932 59.9423 245.832C59.9242 245.707 58.1559 233.111 59.7441 216.371C61.2107 200.91 65.9207 178.642 80.0299 160.354C80.0637 160.31 80.1059 160.273 80.1541 160.245C80.2024 160.217 80.2557 160.199 80.311 160.192C80.3664 160.184 80.4226 160.188 80.4766 160.202C80.5306 160.216 80.5813 160.24 80.6257 160.274C80.6701 160.307 80.7074 160.349 80.7355 160.397C80.7636 160.444 80.7819 160.497 80.7893 160.552C80.7967 160.606 80.7932 160.662 80.7789 160.715C80.7646 160.769 80.7397 160.819 80.7058 160.862C66.7185 178.993 62.0465 201.098 60.5902 216.449C59.0113 233.092 60.7657 245.59 60.7837 245.714C60.7922 245.774 60.7877 245.834 60.7704 245.892C60.7531 245.95 60.7235 246.003 60.6836 246.048C60.6437 246.094 60.5943 246.13 60.5389 246.155C60.4835 246.18 60.4233 246.193 60.3624 246.193Z" fill="#323232"/>
<path d="M71.8764 186.15C71.7866 186.15 71.6991 186.122 71.6265 186.07C71.5538 186.018 71.4997 185.945 71.472 185.861C71.4442 185.776 71.4441 185.685 71.4719 185.601C71.4996 185.517 71.5536 185.443 71.6262 185.391C75.6465 182.703 79.9895 180.52 84.5554 178.891C91.6887 176.311 102.536 173.973 113.703 177.483C113.756 177.5 113.806 177.527 113.848 177.562C113.891 177.598 113.926 177.641 113.952 177.69C113.978 177.739 113.994 177.793 113.998 177.848C114.003 177.903 113.997 177.958 113.98 178.011C113.963 178.063 113.936 178.112 113.9 178.154C113.864 178.196 113.819 178.231 113.77 178.256C113.72 178.282 113.666 178.297 113.61 178.302C113.554 178.306 113.498 178.3 113.445 178.283C102.507 174.845 91.8564 177.144 84.8476 179.679C80.3551 181.28 76.0818 183.427 72.1258 186.07C72.0534 186.122 71.966 186.15 71.8764 186.15Z" fill="#323232"/>
<path d="M52.4282 138.309C52.4217 138.221 52.4437 138.133 52.491 138.057C52.5384 137.982 52.6086 137.924 52.6918 137.89C52.7749 137.857 52.8666 137.85 52.9538 137.871C53.0409 137.893 53.119 137.94 53.1769 138.008C56.1806 141.775 58.6985 145.896 60.6726 150.277C63.791 157.118 66.9336 167.636 64.1929 178.889C64.1799 178.943 64.1564 178.993 64.1236 179.038C64.0908 179.083 64.0494 179.12 64.0018 179.149C63.9542 179.178 63.9013 179.197 63.8461 179.206C63.791 179.215 63.7346 179.212 63.6803 179.2C63.626 179.187 63.5748 179.163 63.5297 179.131C63.4845 179.098 63.4463 179.057 63.4172 179.01C63.388 178.963 63.3686 178.911 63.36 178.857C63.3513 178.802 63.3536 178.746 63.3667 178.693C66.051 167.67 62.9617 157.343 59.8976 150.621C57.957 146.311 55.4812 142.256 52.5272 138.549C52.4693 138.482 52.4346 138.398 52.4282 138.309Z" fill="#323232"/>
<path d="M195.96 245.749H162.133L161.988 245.488C161.556 244.713 161.138 243.892 160.748 243.049C157.263 235.681 155.791 227.255 154.491 219.82L153.513 214.216C153.394 213.538 153.483 212.839 153.769 212.211C154.055 211.583 154.523 211.053 155.116 210.69C155.708 210.326 156.397 210.145 157.093 210.171C157.79 210.196 158.464 210.426 159.027 210.831C164.168 214.526 169.311 218.217 174.456 221.904C176.404 223.304 178.628 224.925 180.759 226.676C180.964 225.69 181.179 224.7 181.394 223.725C181.543 223.052 181.891 222.437 182.395 221.961C182.899 221.484 183.535 221.167 184.223 221.049C184.91 220.932 185.618 221.02 186.254 221.302C186.891 221.584 187.428 222.047 187.796 222.632L191.754 228.912C194.641 233.499 197.189 238.018 196.67 242.893C196.672 242.952 196.668 243.011 196.656 243.069C196.552 243.87 196.36 244.657 196.082 245.416L195.96 245.749Z" fill="#F0F0F0"/>
<path d="M180.201 114.401L173.672 90.535C173.393 89.5247 172.722 88.6635 171.805 88.1373C170.888 87.611 169.799 87.4618 168.772 87.722C168.24 87.8566 167.742 88.0967 167.308 88.4276C166.873 88.7585 166.512 89.1733 166.245 89.6468C165.978 90.1202 165.812 90.6424 165.756 91.1814C165.7 91.7204 165.756 92.265 165.921 92.782L173.471 117.367L177.422 132.497C176.847 132.931 176.42 133.529 176.201 134.211C175.982 134.892 175.981 135.624 176.197 136.306C176.414 136.988 176.838 137.588 177.412 138.024C177.985 138.46 178.681 138.711 179.404 138.743C180.128 138.775 180.843 138.586 181.454 138.202C182.065 137.819 182.541 137.258 182.818 136.598C183.095 135.937 183.16 135.209 183.003 134.511C182.847 133.812 182.476 133.179 181.942 132.696L180.201 114.401Z" fill="#D27852"/>
<path d="M125.266 109.261L145.102 94.1833C145.94 93.5421 146.49 92.601 146.632 91.5631C146.774 90.5251 146.497 89.4737 145.861 88.6355C145.532 88.2019 145.117 87.839 144.642 87.569C144.166 87.2989 143.64 87.1274 143.095 87.0648C142.55 87.0022 141.998 87.0499 141.472 87.2049C140.947 87.3599 140.458 87.6191 140.037 87.9665L119.919 104.252L107.272 113.639C106.646 113.279 105.924 113.119 105.202 113.179C104.481 113.24 103.796 113.518 103.24 113.976C102.685 114.435 102.285 115.051 102.097 115.741C101.908 116.431 101.939 117.162 102.185 117.835C102.432 118.507 102.882 119.088 103.475 119.499C104.067 119.91 104.773 120.13 105.497 120.131C106.221 120.132 106.928 119.912 107.521 119.502C108.114 119.093 108.565 118.512 108.813 117.841L125.266 109.261Z" fill="#D27852"/>
<path d="M141.433 112.727L140.559 132.013L168.012 126.12C165.675 118.37 164.086 117.049 165.842 111.655L141.433 112.727Z" fill="#D27852"/>
<path d="M158.313 77.3691H149.166L145.237 84.0085L143.366 83.9064C142.45 83.8565 141.534 83.9915 140.673 84.3032C139.812 84.6149 139.025 85.0966 138.359 85.7191C137.693 86.3416 137.162 87.0916 136.8 87.9234C136.437 88.7552 136.25 89.6513 136.25 90.5569L138.556 94.0876C138.556 94.0876 134.432 101.187 140.373 104.68C140.373 104.68 139.314 111.261 140.373 111.19C141.433 111.12 143.874 109.78 141.433 111.12C138.992 112.459 139.174 112.639 139.49 112.951L139.806 113.263L165.472 117.519C165.472 117.519 166.223 112.605 166.304 111.728C166.384 110.852 165.842 112.995 166.384 110.852C166.927 108.709 167.74 109.512 166.927 108.709C166.113 107.905 172.199 97.9493 169.698 94.0875L173.707 90.2258C173.707 86.5214 167.683 83.5184 163.933 83.5184H163.452L158.313 77.3691Z" fill="#E6E6E6"/>
<path d="M136.273 238.313H132.571L130.809 224.208L136.274 224.209L136.273 238.313Z" fill="#D27852"/>
<path d="M125.098 243.709C125.1 244.118 125.266 244.511 125.559 244.801C125.852 245.091 126.249 245.255 126.663 245.257H133.633L133.849 244.815L134.835 242.806L135.217 244.815L135.301 245.257H137.93L137.892 244.812L137.191 236.51L136.274 236.454L132.312 236.222L131.339 236.163V238.642C130.6 239.418 124.804 242.352 125.098 243.709Z" fill="#323232"/>
<path d="M191.298 228.735L188.184 230.713L178.977 219.792L183.572 216.873L191.298 228.735Z" fill="#D27852"/>
<path d="M184.856 239.244C185.081 239.588 185.435 239.829 185.841 239.916C186.246 240.004 186.67 239.93 187.02 239.71L192.881 235.986L192.821 235.499L192.549 233.282L193.971 234.768L194.284 235.094L196.495 233.69L196.22 233.335L191.082 226.728L190.281 227.171L186.821 229.093L185.971 229.564L187.329 231.649C187.132 232.696 183.865 238.26 184.856 239.244Z" fill="#323232"/>
<path d="M212.28 245.964L20.7196 246.193C20.5284 246.192 20.3454 246.098 20.2105 245.932C20.0757 245.766 20 245.541 20 245.307C20 245.073 20.0757 244.848 20.2105 244.682C20.3454 244.517 20.5284 244.423 20.7196 244.421L212.28 244.193C212.472 244.194 212.655 244.288 212.789 244.454C212.924 244.62 213 244.844 213 245.079C213 245.313 212.924 245.537 212.789 245.703C212.655 245.869 212.472 245.963 212.28 245.964Z" fill="#CACACA"/>
<path d="M167.581 123.941C167.581 123.941 150.033 133.109 140.751 126.854C140.751 126.854 138.721 136.567 137.907 137.371C137.094 138.174 135.797 138.524 136.717 139.421C137.636 140.317 138.148 141.528 136.4 143.065C134.653 144.603 132.91 144.115 134.595 145.698C136.28 147.282 129.5 186.123 129.5 186.123C129.5 186.123 130.585 222.243 129.5 223.336C128.415 224.428 128 225.193 128.368 226.024C129.771 227.375 129.771 226.327 129.771 228.19V230.053L130.413 231.905H139.219C139.219 231.905 141.344 229.467 139.219 227.349C139.219 227.349 139.865 224.652 140.514 222.665C140.831 221.693 141.162 222.193 141.162 220.678C140.077 218.535 139.556 218.943 139.545 217.533C139.535 216.124 155.536 160.943 155.536 160.943L157.474 191.485L180.786 224.934L187.648 219.851C187.648 219.851 182.652 212.905 183.82 211.95C184.988 210.995 180.377 209.797 181.831 208.72C183.285 207.643 179.785 206.557 181.104 205.129C182.423 203.701 179.286 200.103 177.469 200.103C175.651 200.103 173.1 194.103 173.1 194.103L176.908 146.71L167.581 123.941Z" fill="#323232"/>
<path d="M148.982 57.8741C148.858 58.0351 147.868 57.9484 146.678 57.7768C144.326 57.4376 144.005 57.8407 142.247 59.4207C139.699 61.7095 141.148 75.6692 139.896 78.6939L139.491 78.9882C140.293 78.8369 141.081 78.6191 141.846 78.3372C142.279 76.9902 142.712 75.6389 143.148 74.293C143.56 75.3402 143.819 76.4399 143.918 77.5592C144.523 77.3234 145.125 76.7468 147.656 75.9734C148.93 75.1197 158.148 74.2613 159.333 73.8857C162.341 63.7786 157.494 59.6913 148.982 57.8741Z" fill="#323232"/>
<path d="M152.094 73.4595C156.959 73.4595 160.903 69.5642 160.903 64.759C160.903 59.9539 156.959 56.0586 152.094 56.0586C147.229 56.0586 143.285 59.9539 143.285 64.759C143.285 69.5642 147.229 73.4595 152.094 73.4595Z" fill="#D27852"/>
<path d="M157.64 57.1073C157.144 57.035 156.666 56.8695 156.232 56.6199C156.017 56.4917 155.843 56.3064 155.73 56.0852C155.617 55.8639 155.569 55.6157 155.591 55.3687C155.7 54.7505 156.407 54.3814 157.042 54.419C157.673 54.5089 158.273 54.7487 158.79 55.1177C158.733 54.5203 158.474 53.9591 158.056 53.5242C157.637 53.0892 157.083 52.8059 156.482 52.7196C157.316 52.6752 158.183 52.6361 158.954 52.9529C159.725 53.2697 160.368 54.0541 160.229 54.8675C161.525 54.7026 162.804 55.5948 163.339 56.7727C163.874 57.9506 163.768 59.3339 163.34 60.554C163.298 60.7408 163.216 60.9166 163.099 61.0692C162.982 61.2219 162.833 61.3479 162.663 61.4388C162.226 61.6024 161.757 61.3281 161.379 61.0578C159.404 59.6454 157.606 58.0058 156.024 56.1734" fill="#323232"/>
<path d="M161.481 74.009C161.107 74.1826 161.302 74.8287 161.012 75.118C160.886 75.2405 160.734 75.3338 160.567 75.3912C160.523 74.852 160.396 74.3226 160.19 73.8215C160.152 73.7304 160.09 73.6286 159.992 73.6367C159.878 73.6501 159.848 73.7974 159.845 73.9072C159.823 74.452 159.7 74.9883 159.485 75.4903C159.482 75.4957 159.479 75.5037 159.477 75.5091C159.393 75.5064 159.306 75.5037 159.224 75.501C158.595 75.4769 157.201 73.8805 156.892 74.4215C157.982 72.5117 159.311 69.6401 159.515 67.4569C159.585 66.9999 159.551 66.533 159.414 66.0908C159.343 65.8708 159.209 65.6756 159.029 65.5284C158.849 65.3812 158.629 65.2882 158.397 65.2604C158.283 65.2553 158.168 65.2752 158.063 65.3187C157.957 65.3623 157.862 65.4284 157.785 65.5123C157.708 65.5963 157.651 65.696 157.617 65.8043C157.584 65.9127 157.575 66.027 157.592 66.139L157.434 66.1176C155.975 64.9443 157.234 62.9058 155.536 62.0996C154.961 61.8263 151.441 62.7398 150.82 62.579C150.806 61.9329 150.673 61.2946 150.426 60.6959C150.388 60.6048 150.326 60.5031 150.228 60.5111C150.114 60.5245 150.085 60.6718 150.082 60.7816C150.059 61.3265 149.937 61.8627 149.721 62.3648C148.861 62.2442 147.985 62.2897 147.142 62.4987C146.399 62.6915 145.694 63.0237 144.948 63.2005C144.579 63.3121 144.191 63.3483 143.808 63.3068C143.425 63.2654 143.054 63.1471 142.718 62.9594C141.772 62.3326 141.607 60.945 142.078 59.9218C142.42 59.2652 142.882 58.6767 143.44 58.186C143.866 57.7788 144.308 57.3877 144.75 56.9966C145.146 56.6457 145.542 56.2948 145.938 55.9439C146.436 55.4805 146.967 55.0527 147.527 54.6635C148.421 54.0849 149.425 53.6929 150.477 53.5114C151.53 53.3299 152.609 53.3628 153.648 53.6081C154.896 53.9027 156.564 53.4875 157.706 54.0635C158.302 54.3661 159.623 55.526 160.147 55.9385C161.486 56.9913 160.58 56.1335 162.045 56.7421C165.539 58.1935 163.994 72.8405 161.481 74.009Z" fill="#323232"/>
<path d="M63.9453 137.512C94.1166 137.512 118.575 113.355 118.575 83.5556C118.575 53.7561 94.1166 29.5989 63.9453 29.5989C33.774 29.5989 9.31537 53.7561 9.31537 83.5556C9.31537 113.355 33.774 137.512 63.9453 137.512Z" fill="white"/>
<path d="M63.9454 138.051C33.5217 138.051 8.77011 113.604 8.77011 83.5556C8.77011 53.5069 33.5217 29.0603 63.9454 29.0603C94.3691 29.0603 119.121 53.5069 119.121 83.5556C119.121 113.604 94.3691 138.051 63.9454 138.051ZM63.9454 30.1375C34.1231 30.1375 9.86073 54.1008 9.86073 83.5556C9.86073 113.01 34.1231 136.974 63.9454 136.974C93.7677 136.974 118.03 113.01 118.03 83.5556C118.03 54.1008 93.7677 30.1375 63.9454 30.1375Z" fill="#FF8D4D"/>
<rect x="174.719" y="197.275" width="12.3227" height="21.7663" transform="rotate(-29.5738 174.719 197.275)" fill="white"/>
<path d="M65.7428 111.732C67.8223 110.409 69.9079 109.093 71.9874 107.77C72.9287 107.173 73.8823 106.583 74.799 105.943C76.9769 104.423 79.0195 102.694 80.8345 100.75C84.4274 96.8926 87.1591 92.3214 88.8879 87.3441C90.2968 83.2774 90.8997 78.9893 90.8997 74.6949V66.5062C90.8997 65.4049 90.1307 64.4451 89.0909 64.1313C88.3403 63.9037 87.5959 63.6699 86.8761 63.3685C87.0729 63.4484 87.2698 63.5346 87.4667 63.6145C86.1808 63.067 84.975 62.3656 83.8676 61.5166L84.3659 61.9042C83.2708 61.0552 82.2864 60.077 81.4374 58.9818L81.825 59.4802C80.976 58.3728 80.2684 57.1607 79.7209 55.8749C79.8009 56.0718 79.887 56.2687 79.967 56.4655C79.7824 56.0226 79.6101 55.5673 79.4625 55.112C79.1303 54.0723 78.2013 53.3032 77.0877 53.3032H55.0069C53.9918 53.3032 52.9705 53.2725 51.9554 53.3032H51.9123C50.7926 53.3032 49.8697 54.0723 49.5375 55.112C49.3898 55.5734 49.2237 56.0226 49.033 56.4655C49.113 56.2687 49.1991 56.0718 49.2791 55.8749C48.7315 57.1607 48.024 58.3666 47.175 59.4802L47.5626 58.9818C46.7136 60.077 45.7292 61.0552 44.6341 61.9042L45.1324 61.5166C44.025 62.3656 42.813 63.067 41.5333 63.6145C41.7302 63.5346 41.927 63.4484 42.1239 63.3685C41.3979 63.6699 40.6597 63.9037 39.9091 64.1313C38.8693 64.4451 38.1003 65.4049 38.1003 66.5062V73.9259C38.1003 75.2302 38.1003 76.5345 38.1926 77.8388C38.3894 80.4904 38.8386 83.1359 39.583 85.6892C41.0596 90.7587 43.6189 95.4283 47.015 99.4581C49.6544 102.59 52.8351 105.124 56.2805 107.308L63.0911 111.627C63.1465 111.664 63.208 111.701 63.2634 111.738C64.3523 112.427 66.0258 112.003 66.6287 110.852C67.2685 109.634 66.9056 108.225 65.7428 107.487C64.6353 106.786 63.5279 106.084 62.4266 105.383C61.0116 104.485 59.6027 103.592 58.1877 102.694C57.1972 102.067 56.2312 101.396 55.2961 100.682L55.7944 101.07C53.4688 99.2674 51.377 97.1756 49.5744 94.85L49.962 95.3483C48.1286 92.9674 46.6028 90.3588 45.4277 87.5902C45.5077 87.7871 45.5938 87.984 45.6738 88.1809C44.4741 85.3323 43.6558 82.3423 43.2436 79.2784C43.2744 79.4937 43.3052 79.7152 43.3298 79.9306C43.0652 77.9372 43.0222 75.9438 43.0222 73.9443V66.5308C42.4192 67.3244 41.8163 68.1119 41.2134 68.9056C43.3359 68.2657 45.3908 67.4167 47.1934 66.1186C49.3283 64.5805 51.1494 62.6855 52.5029 60.4215C53.2474 59.1787 53.8441 57.8252 54.2871 56.4471C53.4934 57.05 52.7059 57.6529 51.9123 58.2559H73.9931C75.0082 58.2559 76.0295 58.2805 77.0446 58.2559H77.0877C76.294 57.6529 75.5065 57.05 74.7129 56.4471C76.2571 61.2644 79.764 65.4541 84.3659 67.6197C85.4733 68.1427 86.6115 68.5487 87.7866 68.9056C87.1837 68.1119 86.5807 67.3244 85.9778 66.5308V75.2548C85.9778 76.8175 85.8732 78.3802 85.6702 79.9306C85.701 79.7152 85.7317 79.4937 85.7563 79.2784C85.338 82.3361 84.5197 85.3323 83.3262 88.1809C83.4061 87.984 83.4923 87.7871 83.5723 87.5902C82.3972 90.3588 80.8714 92.9674 79.038 95.3483L79.4256 94.85C77.6229 97.1756 75.5311 99.2674 73.2056 101.07L73.7039 100.682C72.3258 101.747 70.8615 102.663 69.3973 103.599C67.773 104.632 66.1488 105.66 64.5246 106.693C64.1062 106.958 63.6817 107.229 63.2634 107.493C62.7281 107.831 62.3036 108.342 62.1313 108.963C61.9714 109.554 62.0452 110.335 62.3774 110.858C63.0788 111.941 64.58 112.47 65.7428 111.732Z" fill="#FF8D4D"/>
<path d="M51.9615 82.5638L58.28 88.8822L59.1782 89.7805C60.1195 90.7218 61.7191 90.7218 62.6605 89.7805L67.5393 84.9017L75.2605 77.1805L77.0385 75.4024C77.949 74.4919 78.0167 72.8185 77.0385 71.9202C76.0541 71.0158 74.5283 70.9481 73.5563 71.9202L68.6775 76.799L60.9563 84.5202L59.1782 86.2982H62.6605L56.342 79.9798L55.4438 79.0815C54.5332 78.171 52.8598 78.1033 51.9615 79.0815C51.0571 80.0659 50.9895 81.5855 51.9615 82.5638Z" fill="#FF8D4D"/>
<rect x="37.9737" y="52.8508" width="54.7105" height="11.6053" fill="white"/>
<rect x="37.5737" y="65.1511" width="30.0737" height="4.97368" rx="2.48684" transform="rotate(-22.4233 37.5737 65.1511)" fill="#FF8D4C"/>
<rect width="30.6462" height="4.97368" rx="2.48684" transform="matrix(-0.924391 -0.381446 -0.381446 0.924391 91.6194 65.1138)" fill="#FF8D4C"/>
<path d="M139.612 217.739C139.629 216.75 140.445 215.962 141.434 215.98L143.147 216.01L142.865 232.162L139.361 232.1L139.612 217.739Z" fill="white"/>
<rect x="122.999" y="217.193" width="6.69922" height="12" fill="white"/>
</g>
<defs>
<clipPath id="clip0_3_331">
<rect width="209" height="246" fill="white" transform="translate(0 0.192871)"/>
</clipPath>
</defs>
</svg>
